<?xml version="1.0" encoding="UTF-8" standalone="no"?>
<!-- Created with Inkscape (http://www.inkscape.org/) -->

<svg
   width="210mm"
   height="297mm"
   viewBox="0 0 210 297"
   version="1.1"
   id="svg5"
   inkscape:version="1.1.2 (b8e25be833, 2022-02-05)"
   sodipodi:docname="logo.svg"
   xmlns:inkscape="http://www.inkscape.org/namespaces/inkscape"
   xmlns:sodipodi="http://sodipodi.sourceforge.net/DTD/sodipodi-0.dtd"
   xmlns="http://www.w3.org/2000/svg"
   xmlns:svg="http://www.w3.org/2000/svg">
  <sodipodi:namedview
     id="namedview7"
     pagecolor="#ffffff"
     bordercolor="#666666"
     borderopacity="1.0"
     inkscape:pageshadow="2"
     inkscape:pageopacity="0.0"
     inkscape:pagecheckerboard="0"
     inkscape:document-units="mm"
     showgrid="false"
     inkscape:zoom="0.45291836"
     inkscape:cx="1133.7584"
     inkscape:cy="1260.7129"
     inkscape:window-width="3840"
     inkscape:window-height="2066"
     inkscape:window-x="-11"
     inkscape:window-y="-11"
     inkscape:window-maximized="1"
     inkscape:current-layer="layer1" />
  <defs
     id="defs2">
    <inkscape:perspective
       sodipodi:type="inkscape:persp3d"
       inkscape:vp_x="0 : 148.5 : 1"
       inkscape:vp_y="0 : 1000 : 0"
       inkscape:vp_z="210 : 148.5 : 1"
       inkscape:persp3d-origin="105 : 99 : 1"
       id="perspective8042" />
  </defs>
  <g
     inkscape:label="Camada 1"
     inkscape:groupmode="layer"
     id="layer1">
    <path
       sodipodi:type="star"
       style="opacity:1;fill:none;stroke:#0059b3;stroke-width:44.8176;stroke-linejoin:round;stroke-miterlimit:4;stroke-dasharray:none;stroke-opacity:1"
       id="path8240"
       inkscape:flatsided="false"
       sodipodi:sides="6"
       sodipodi:cx="-448.85175"
       sodipodi:cy="141.29073"
       sodipodi:r1="274.04919"
       sodipodi:r2="237.21313"
       sodipodi:arg1="1.5707963"
       sodipodi:arg2="2.0944355"
       inkscape:rounded="0"
       inkscape:randomized="0"
       d="m -448.85174,415.33992 -118.61487,-68.62139 -118.7187,-68.4032 0.12043,-137.03419 -0.12043,-137.0150051 118.7353,-68.4128009 118.59826,-68.611804 118.61487,68.621386 118.71869,68.4032062 -0.12042,137.0341878 0.12043,137.01501 -118.7353,68.4128 z"
       transform="matrix(0.26458333,0,0,0.26458333,581.60779,48.123085)"
       inkscape:transform-center-x="-1.4961725e-06" />
    <path
       style="color:#000000;fill:#afc6e9;stroke:#afc6e9;stroke-width:3.62737;stroke-linejoin:round;stroke-miterlimit:4;stroke-dasharray:none"
       d="m 411.15951,60.045165 v 55.551215 l 11.58111,5.92419 V 79.206955 l 39.76845,22.326875 40.44851,-21.911425 v 40.910805 l 11.58111,-5.9242 V 60.460615 l -52.02962,28.29808 z"
       id="path8534"
       sodipodi:nodetypes="ccccccccccc" />
    <path
       sodipodi:type="star"
       style="opacity:1;fill:none;stroke:#0059b3;stroke-width:44.8176;stroke-linejoin:round;stroke-miterlimit:4;stroke-dasharray:none;stroke-opacity:1"
       id="path8240-4"
       inkscape:flatsided="false"
       sodipodi:sides="6"
       sodipodi:cx="-448.85175"
       sodipodi:cy="141.29073"
       sodipodi:r1="274.04919"
       sodipodi:r2="237.21313"
       sodipodi:arg1="1.5707963"
       sodipodi:arg2="2.0944355"
       inkscape:rounded="0"
       inkscape:randomized="0"
       transform="matrix(0.26458333,0,0,0.26458333,433.77845,48.681717)"
       inkscape:transform-center-x="-1.4961725e-06"
       d="m -448.85174,415.33992 -118.61487,-68.62139 -118.7187,-68.4032 0.12043,-137.03419 -0.12043,-137.0150051 118.7353,-68.4128009 118.59826,-68.611804 118.61487,68.621386 118.71869,68.4032062 -0.12042,137.0341878 0.12043,137.01501 -118.7353,68.4128 z" />
    <path
       style="color:#000000;fill:#afc6e9;fill-opacity:1;stroke:#afc6e9;stroke-width:4.83998;stroke-linejoin:round;stroke-miterlimit:4;stroke-dasharray:none"
       d="M 347.18631,73.335807 V 105.9145 l -32.57943,19.31104 -31.75134,-17.82861 V 73.458567 l -14.06461,-8.15834 v 50.215353 l 45.81595,25.94958 46.64171,-27.43202 V 65.177467 Z"
       id="path9992-3"
       sodipodi:nodetypes="ccccccccccc" />
    <path
       sodipodi:type="star"
       style="opacity:1;fill:none;stroke:#0059b3;stroke-width:44.8176;stroke-linejoin:round;stroke-miterlimit:4;stroke-dasharray:none;stroke-opacity:1"
       id="path8240-6"
       inkscape:flatsided="false"
       sodipodi:sides="6"
       sodipodi:cx="-448.85175"
       sodipodi:cy="141.29073"
       sodipodi:r1="274.04919"
       sodipodi:r2="237.21313"
       sodipodi:arg1="1.5707963"
       sodipodi:arg2="2.0944355"
       inkscape:rounded="0"
       inkscape:randomized="0"
       transform="matrix(0.26458333,0,0,0.26458333,656.55514,173.28441)"
       inkscape:transform-center-x="-1.4961725e-06"
       d="m -448.85174,415.33992 -118.61487,-68.62139 -118.7187,-68.4032 0.12043,-137.03419 -0.12043,-137.0150051 118.7353,-68.4128009 118.59826,-68.611804 118.61487,68.621386 118.71869,68.4032062 -0.12042,137.0341878 0.12043,137.01501 -118.7353,68.4128 z" />
    <path
       sodipodi:type="star"
       style="opacity:1;fill:none;stroke:#0059b3;stroke-width:44.8176;stroke-linejoin:round;stroke-miterlimit:4;stroke-dasharray:none;stroke-opacity:1"
       id="path8240-4-2"
       inkscape:flatsided="false"
       sodipodi:sides="6"
       sodipodi:cx="-448.85175"
       sodipodi:cy="141.29073"
       sodipodi:r1="274.04919"
       sodipodi:r2="237.21313"
       sodipodi:arg1="1.5707963"
       sodipodi:arg2="2.0944355"
       inkscape:rounded="0"
       inkscape:randomized="0"
       transform="matrix(0.26458333,0,0,0.26458333,508.7258,174.25613)"
       inkscape:transform-center-x="-1.4961725e-06"
       d="m -448.85174,415.33992 -118.61487,-68.62139 -118.7187,-68.4032 0.12043,-137.03419 -0.12043,-137.0150051 118.7353,-68.4128009 118.59826,-68.611804 118.61487,68.621386 118.71869,68.4032062 -0.12042,137.0341878 0.12043,137.01501 -118.7353,68.4128 z" />
    <g
       id="g42973"
       inkscape:export-filename="C:\Users\User\OneDrive\GitHub\umox\umox-frontend\umox_logo.png"
       inkscape:export-xdpi="90.029999"
       inkscape:export-ydpi="90.029999">
      <path
         sodipodi:type="star"
         style="opacity:1;fill:none;stroke:#1e65ae;stroke-width:44.8176;stroke-linejoin:round;stroke-miterlimit:4;stroke-dasharray:none;stroke-opacity:1"
         id="path8240-3"
         inkscape:flatsided="false"
         sodipodi:sides="6"
         sodipodi:cx="-448.85175"
         sodipodi:cy="141.29073"
         sodipodi:r1="274.04919"
         sodipodi:r2="237.21313"
         sodipodi:arg1="1.5707963"
         sodipodi:arg2="2.0944355"
         inkscape:rounded="0"
         inkscape:randomized="0"
         transform="matrix(0.26458333,0,0,0.26458333,226.57093,103.88804)"
         inkscape:transform-center-x="-1.4961725e-06"
         d="m -448.85174,415.33992 -118.61487,-68.62139 -118.7187,-68.4032 0.12043,-137.03419 -0.12043,-137.0150051 118.7353,-68.4128009 118.59826,-68.611804 118.61487,68.621386 118.71869,68.4032062 -0.12042,137.0341878 0.12043,137.01501 -118.7353,68.4128 z" />
      <path
         style="color:#000000;fill:#afc6e9;stroke:#afc6e9;stroke-width:3.62737;stroke-linejoin:round;stroke-miterlimit:4;stroke-dasharray:none"
         d="m 56.122653,115.81011 v 55.55122 l 11.58111,5.92419 V 134.9719 l 39.768447,22.32688 40.44851,-21.91143 v 40.91081 l 11.58111,-5.9242 v -54.1484 l -52.02962,28.29808 z"
         id="path8534-1"
         sodipodi:nodetypes="ccccccccccc" />
      <path
         style="color:#000000;fill:#afc6e9;fill-opacity:1;stroke:#afc6e9;stroke-width:3.31208;stroke-linejoin:round;stroke-miterlimit:4;stroke-dasharray:none"
         d="m 129.82435,153.354 v 22.29415 L 107.5297,188.86302 85.801723,176.6626 v -23.22459 l -9.62465,-5.58289 v 34.36321 l 31.352627,17.75773 31.91771,-18.77219 v -33.43276 z"
         id="path9992-7"
         sodipodi:nodetypes="ccccccccccc" />
    </g>
    <path
       style="color:#000000;fill:#afc6e9;fill-opacity:1;stroke:#afc6e9;stroke-width:6.08555;stroke-linejoin:round;stroke-miterlimit:4;stroke-dasharray:none"
       d="m 389.94162,156.81889 a 4.1442476,4.1442476 0 0 0 -2.07493,0.55693 l -21.92818,12.68579 -21.95346,12.64896 a 4.1442476,4.1442476 0 0 0 -2.07494,3.59402 l 0.0221,25.3333 -0.0221,25.33656 a 4.1442476,4.1442476 0 0 0 2.07494,3.59438 l 21.9502,12.64715 21.93144,12.6876 a 4.1442476,4.1442476 0 0 0 4.14986,0 l 21.92817,-12.6858 21.95346,-12.64895 a 4.1442476,4.1442476 0 0 0 2.07494,-3.59438 l -0.0224,-25.33295 0.0224,-25.33691 a 4.1442476,4.1442476 0 0 0 -2.07494,-3.59402 l -21.95056,-12.64715 -21.93107,-12.6876 a 4.1442476,4.1442476 0 0 0 -2.07493,-0.55693 z m 0,8.93105 19.85902,11.48888 a 4.1442476,4.1442476 0 0 0 0.006,0.004 l 19.87637,11.45239 -0.0203,22.94307 a 4.1442476,4.1442476 0 0 0 0,0.007 l 0.0203,22.93946 -19.87961,11.4542 a 4.1442476,4.1442476 0 0 0 -0.006,0.003 l -19.85613,11.48707 -19.85939,-11.48887 a 4.1442476,4.1442476 0 0 0 -0.006,-0.003 l -19.87636,-11.4524 0.0203,-22.94307 a 4.1442476,4.1442476 0 0 0 0,-0.002 4.1442476,4.1442476 0 0 0 0,-0.004 4.1442476,4.1442476 0 0 0 0,-0.002 l -0.0203,-22.93946 19.87961,-11.4542 a 4.1442476,4.1442476 0 0 0 0.006,-0.004 z"
       id="path26405" />
    <path
       id="path36222"
       style="color:#000000;fill:#afc6e9;stroke-width:0.964796;-inkscape-stroke:none;fill-opacity:1"
       d="m 487.94625,177.50245 0.0208,15.36505 36.19521,19.45197 -36.19521,19.45197 0.1071,14.83589 50.55336,-26.51409 50.65335,24.36091 0.007,-12.68271 -36.19521,-19.45197 36.19521,-19.45197 0.0114,-13.24838 -50.67136,24.92659 z"
       sodipodi:nodetypes="ccccccccccccc" />
    <rect
       style="fill:#1e65ae;fill-opacity:1;stroke-width:5.94699;stroke-linejoin:round"
       id="rect873"
       width="70.392998"
       height="33.59"
       x="-73.072525"
       y="121.74657" />
    <rect
       style="fill:#3e8ed0;fill-opacity:1;stroke-width:34.9232;stroke-linejoin:round"
       id="rect10792"
       width="70.392998"
       height="33.59"
       x="-74.543396"
       y="165.45616" />
    <rect
       style="fill:#80a4dc;fill-opacity:1;stroke-width:14.465;stroke-linejoin:round"
       id="rect16451"
       width="70.393021"
       height="33.590027"
       x="-75.504547"
       y="208.11214" />
    <text
       xml:space="preserve"
       style="font-style:normal;font-weight:normal;font-size:10.5833px;line-height:1.25;font-family:sans-serif;fill:#000000;fill-opacity:1;stroke:none;stroke-width:0.264583"
       x="-52.137566"
       y="229.28847"
       id="text31796"><tspan
         sodipodi:role="line"
         id="tspan31794"
         style="fill:#ffffff;stroke-width:0.264583"
         x="-52.137566"
         y="229.28847">Link</tspan></text>
    <text
       xml:space="preserve"
       style="font-style:normal;font-weight:normal;font-size:10.5833px;line-height:1.25;font-family:sans-serif;fill:#000000;fill-opacity:1;stroke:none;stroke-width:0.264583"
       x="-50.238998"
       y="186.05956"
       id="text34322"><tspan
         sodipodi:role="line"
         style="fill:#ffffff;stroke-width:0.264583"
         x="-50.238998"
         y="186.05956"
         id="tspan34400">Info</tspan></text>
    <text
       xml:space="preserve"
       style="font-style:normal;font-weight:normal;font-size:10.5833px;line-height:1.25;font-family:sans-serif;fill:#000000;fill-opacity:1;stroke:none;stroke-width:0.264583"
       x="-58.540653"
       y="142.10043"
       id="text36112"><tspan
         sodipodi:role="line"
         style="fill:#ffffff;stroke-width:0.264583"
         x="-58.540653"
         y="142.10043"
         id="tspan36814">Primary</tspan></text>
    <rect
       style="fill:#1e65ae;fill-opacity:1;stroke:#ffffff;stroke-width:14.465;stroke-linejoin:round"
       id="rect5768"
       width="456.24023"
       height="276.31451"
       x="243.01657"
       y="356.34641" />
    <g
       id="g5744"
       transform="translate(518.16274,25.119501)">
      <g
         id="g5738">
        <path
           sodipodi:type="star"
           style="opacity:1;fill:none;stroke:#ffffff;stroke-width:44.8176;stroke-linejoin:round;stroke-miterlimit:4;stroke-dasharray:none;stroke-opacity:1"
           id="path843"
           inkscape:flatsided="false"
           sodipodi:sides="6"
           sodipodi:cx="-448.85175"
           sodipodi:cy="141.29073"
           sodipodi:r1="274.04919"
           sodipodi:r2="237.21313"
           sodipodi:arg1="1.5707963"
           sodipodi:arg2="2.0944355"
           inkscape:rounded="0"
           inkscape:randomized="0"
           transform="matrix(0.26458333,0,0,0.26458333,75.85392,435.69913)"
           inkscape:transform-center-x="-1.4961725e-06"
           inkscape:export-filename="C:\Users\User\OneDrive\GitHub\umox\umox-frontend\src\assets\umox-logo (white).png"
           inkscape:export-xdpi="90.029999"
           inkscape:export-ydpi="90.029999"
           d="m -448.85174,415.33992 -118.61487,-68.62139 -118.7187,-68.4032 0.12043,-137.03419 -0.12043,-137.0150051 118.7353,-68.4128009 118.59826,-68.611804 118.61487,68.621386 118.71869,68.4032062 -0.12042,137.0341878 0.12043,137.01501 -118.7353,68.4128 z" />
        <path
           style="color:#000000;fill:#ffffff;stroke:#ffffff;stroke-width:3.62737;stroke-linejoin:round;stroke-miterlimit:4;stroke-dasharray:none"
           d="m -94.59436,447.6212 v 55.55122 l 11.58111,5.92419 v -42.31362 l 39.76845,22.32688 40.44851,-21.91143 v 40.91081 l 11.58111,-5.9242 v -54.1484 l -52.02962,28.29808 z"
           id="path845"
           sodipodi:nodetypes="ccccccccccc"
           inkscape:export-filename="C:\Users\User\OneDrive\GitHub\umox\umox-frontend\src\assets\umox-logo (white).png"
           inkscape:export-xdpi="90.029999"
           inkscape:export-ydpi="90.029999" />
        <path
           style="color:#000000;fill:#ffffff;fill-opacity:1;stroke:#ffffff;stroke-width:3.31208;stroke-linejoin:round;stroke-miterlimit:4;stroke-dasharray:none"
           d="m -20.89266,485.16509 v 22.29415 l -22.29465,13.21487 -21.72798,-12.20042 V 485.2491 l -9.62465,-5.58289 v 34.36321 l 31.35263,17.75773 31.91771,-18.77219 V 479.5822 Z"
           id="path847"
           sodipodi:nodetypes="ccccccccccc"
           inkscape:export-filename="C:\Users\User\OneDrive\GitHub\umox\umox-frontend\src\assets\umox-logo (white).png"
           inkscape:export-xdpi="90.029999"
           inkscape:export-ydpi="90.029999" />
      </g>
    </g>
  </g>
</svg>
